<?xml version="1.0" encoding="UTF-8" standalone="no"?>
<!-- Created with Inkscape (http://www.inkscape.org/) -->

<svg
   xmlns:osb="http://www.openswatchbook.org/uri/2009/osb"
   xmlns:dc="http://purl.org/dc/elements/1.1/"
   xmlns:cc="http://creativecommons.org/ns#"
   xmlns:rdf="http://www.w3.org/1999/02/22-rdf-syntax-ns#"
   xmlns:svg="http://www.w3.org/2000/svg"
   xmlns="http://www.w3.org/2000/svg"
   xmlns:xlink="http://www.w3.org/1999/xlink"
   xmlns:sodipodi="http://sodipodi.sourceforge.net/DTD/sodipodi-0.dtd"
   xmlns:inkscape="http://www.inkscape.org/namespaces/inkscape"
   width="100"
   height="115.47"
   id="svg2"
   version="1.1"
   inkscape:version="0.48.5 r10040"
   sodipodi:docname="grasshopper_black.svg">
  <defs
     id="defs4">
    <inkscape:path-effect
       effect="skeletal"
       id="path-effect13681"
       is_visible="true"
       pattern="M 0,5 C 0,2.24 2.24,0 5,0 7.76,0 10,2.24 10,5 10,7.76 7.76,10 5,10 2.24,10 0,7.76 0,5 z"
       copytype="single_stretched"
       prop_scale="1"
       scale_y_rel="false"
       spacing="0"
       normal_offset="0"
       tang_offset="0"
       prop_units="false"
       vertical_pattern="false"
       fuse_tolerance="0" />
    <inkscape:path-effect
       effect="skeletal"
       id="path-effect12794"
       is_visible="true"
       pattern="M 0,5 C 0,2.24 2.24,0 5,0 7.76,0 10,2.24 10,5 10,7.76 7.76,10 5,10 2.24,10 0,7.76 0,5 z"
       copytype="single_stretched"
       prop_scale="1"
       scale_y_rel="false"
       spacing="0"
       normal_offset="0"
       tang_offset="0"
       prop_units="false"
       vertical_pattern="false"
       fuse_tolerance="0" />
    <inkscape:path-effect
       effect="skeletal"
       id="path-effect12777"
       is_visible="true"
       pattern="M 0,5 C 0,2.24 2.24,0 5,0 7.76,0 10,2.24 10,5 10,7.76 7.76,10 5,10 2.24,10 0,7.76 0,5 z"
       copytype="single_stretched"
       prop_scale="1"
       scale_y_rel="false"
       spacing="0"
       normal_offset="0"
       tang_offset="0"
       prop_units="false"
       vertical_pattern="false"
       fuse_tolerance="0" />
    <inkscape:path-effect
       effect="skeletal"
       id="path-effect12773"
       is_visible="true"
       pattern="M 0,5 C 0,2.24 2.24,0 5,0 7.76,0 10,2.24 10,5 10,7.76 7.76,10 5,10 2.24,10 0,7.76 0,5 z"
       copytype="single_stretched"
       prop_scale="1"
       scale_y_rel="false"
       spacing="0"
       normal_offset="0"
       tang_offset="0"
       prop_units="false"
       vertical_pattern="false"
       fuse_tolerance="0" />
    <inkscape:path-effect
       effect="skeletal"
       id="path-effect12767"
       is_visible="true"
       pattern="M 0,5 C 0,2.24 2.24,0 5,0 7.76,0 10,2.24 10,5 10,7.76 7.76,10 5,10 2.24,10 0,7.76 0,5 z"
       copytype="single_stretched"
       prop_scale="1"
       scale_y_rel="false"
       spacing="0"
       normal_offset="0"
       tang_offset="0"
       prop_units="false"
       vertical_pattern="false"
       fuse_tolerance="0" />
    <inkscape:path-effect
       effect="skeletal"
       id="path-effect10911"
       is_visible="true"
       pattern="M 0,5 C 0,2.24 2.24,0 5,0 7.76,0 10,2.24 10,5 10,7.76 7.76,10 5,10 2.24,10 0,7.76 0,5 z"
       copytype="single_stretched"
       prop_scale="1"
       scale_y_rel="false"
       spacing="0"
       normal_offset="0"
       tang_offset="0"
       prop_units="false"
       vertical_pattern="false"
       fuse_tolerance="0" />
    <inkscape:path-effect
       effect="spiro"
       id="path-effect10909"
       is_visible="true" />
    <inkscape:path-effect
       effect="spiro"
       id="path-effect10905"
       is_visible="true" />
    <linearGradient
       id="linearGradient6309">
      <stop
         style="stop-color:#00ff00;stop-opacity:1;"
         offset="0"
         id="stop6311" />
      <stop
         style="stop-color:#00ff00;stop-opacity:0;"
         offset="1"
         id="stop6313" />
    </linearGradient>
    <linearGradient
       id="linearGradient6303"
       osb:paint="solid"
       gradientTransform="matrix(1.7824531,0,0,0.90238836,-51.017572,3970.5565)">
      <stop
         style="stop-color:#000000;stop-opacity:1;"
         offset="0"
         id="stop6305" />
    </linearGradient>
    <linearGradient
       inkscape:collect="always"
       xlink:href="#linearGradient6309"
       id="linearGradient6315"
       x1="16.017857"
       y1="14.800358"
       x2="53.446426"
       y2="14.800358"
       gradientUnits="userSpaceOnUse" />
    <linearGradient
       inkscape:collect="always"
       xlink:href="#linearGradient6309"
       id="linearGradient6327"
       gradientUnits="userSpaceOnUse"
       x1="16.017857"
       y1="14.800358"
       x2="53.446426"
       y2="14.800358" />
  </defs>
  <sodipodi:namedview
     id="base"
     pagecolor="#ffffff"
     bordercolor="#666666"
     borderopacity="1.0"
     inkscape:pageopacity="0.0"
     inkscape:pageshadow="2"
     inkscape:zoom="5.6568543"
     inkscape:cx="4.1390148"
     inkscape:cy="42.726051"
     inkscape:document-units="px"
     inkscape:current-layer="layer1"
     showgrid="false"
     showguides="true"
     inkscape:guide-bbox="true"
     inkscape:window-width="1920"
     inkscape:window-height="1028"
     inkscape:window-x="-8"
     inkscape:window-y="-8"
     inkscape:window-maximized="1">
    <sodipodi:guide
       orientation="-0.5,0.8660254"
       position="50,0"
       id="guide2985" />
    <sodipodi:guide
       orientation="0.5,0.8660254"
       position="50,0"
       id="guide10861" />
    <sodipodi:guide
       orientation="-0.5,0.8660254"
       position="50,115.47"
       id="guide10863" />
    <sodipodi:guide
       orientation="0.5,0.8660254"
       position="50,115.47"
       id="guide10865" />
    <sodipodi:guide
       orientation="1,0"
       position="50,0"
       id="guide10889" />
    <sodipodi:guide
       orientation="0,1"
       position="-49.999953,57.735"
       id="guide10891" />
  </sodipodi:namedview>
  <metadata
     id="metadata7">
    <rdf:RDF>
      <cc:Work
         rdf:about="">
        <dc:format>image/svg+xml</dc:format>
        <dc:type
           rdf:resource="http://purl.org/dc/dcmitype/StillImage" />
        <dc:title></dc:title>
      </cc:Work>
    </rdf:RDF>
  </metadata>
  <g
     inkscape:label="Layer 1"
     inkscape:groupmode="layer"
     id="layer1"
     transform="translate(0,-1989.2544)">
    <path
       style="fill:#008400;fill-opacity:0.86243384999999984;fill-rule:evenodd;stroke:#ffffff;stroke-width:0.82399999999999984;stroke-linecap:butt;stroke-linejoin:round;stroke-miterlimit:4;stroke-opacity:1;stroke-dashoffset:0"
       d="M 34.375 12 C 34.375 12 41.277746 22.48425 44.3125 27.96875 C 45.539744 30.186611 47.207706 33.81472 47.8125 35.125 C 47.791683 35.135743 47.771175 35.145886 47.75 35.15625 C 46.916849 35.564048 45.628898 35.135179 44.84375 36.625 C 44.058602 38.114821 45.34115 39.03121 45.34375 40.25 C 45.345664 41.160644 45.282096 42.06315 45.1875 42.96875 C 44.133954 42.639168 42.554573 42.149223 40.28125 41.28125 C 36.426177 39.80935 35.1875 39.0625 35.1875 39.0625 C 35.1875 39.0625 41.140913 34.9011 37.125 33.75 C 33.109088 32.5989 31.956629 28.70795 30.28125 30.40625 C 28.605871 32.10455 35.5625 35.375 35.5625 35.375 C 35.5625 35.375 32.560728 37.3373 32.71875 39 C 32.864906 40.5378 33.999538 42.02575 39 43.90625 C 41.722299 44.930018 43.716435 45.202202 44.90625 45.25 C 44.433208 48.084143 43.688508 50.893061 43.1875 53.71875 C 40.780803 54.74525 37.074983 56.412362 35.03125 57.75 C 27.301177 62.8094 24.937822 68.5726 22.34375 71.5 C 19.749679 74.4275 16.607766 73.3944 17.53125 75.1875 C 18.454735 76.9807 20.000281 75.4996 23.625 73 C 27.249719 70.5003 28.112495 64.89335 35.375 61.40625 C 37.771976 60.255362 40.952542 57.846163 42.78125 56.40625 C 42.631347 57.815155 42.581132 59.237675 42.6875 60.65625 C 42.699425 60.815291 42.732312 60.966981 42.75 61.125 C 41.443671 63.467746 38.690335 68.847258 38.9375 72.1875 C 40.301018 90.614342 33.480237 95.43507 38.5 95.625 C 43.519766 95.81493 37.491521 89.163096 43.53125 77.0625 C 44.506132 75.109325 44.96679 71.716179 45.1875 69.125 C 45.832828 70.845736 46.401202 72.575169 46.625 74.375 C 47.276079 79.611118 44.866769 85.063274 46.125 90.1875 C 46.753965 92.749 47.377051 96.816228 50 97.09375 C 52.622949 96.81625 53.246035 92.749 53.875 90.1875 C 55.133231 85.0633 52.723921 79.6111 53.375 74.375 C 53.598798 72.5752 54.167172 70.8457 54.8125 69.125 C 55.03321 71.7162 55.493868 75.1093 56.46875 77.0625 C 62.508479 89.1631 56.480234 95.8149 61.5 95.625 C 66.519763 95.4351 59.698982 90.6143 61.0625 72.1875 C 61.309665 68.8473 58.556329 63.4677 57.25 61.125 C 57.26769 60.967 57.30057 60.81535 57.3125 60.65625 C 57.418868 59.23775 57.368653 57.81525 57.21875 56.40625 C 59.047458 57.84625 62.228024 60.25545 64.625 61.40625 C 71.887505 64.89335 72.750281 70.5003 76.375 73 C 79.999719 75.4996 81.545262 76.9807 82.46875 75.1875 C 83.39223 73.3944 80.250321 74.4275 77.65625 71.5 C 75.062178 68.5726 72.698823 62.8094 64.96875 57.75 C 62.925017 56.4124 59.219197 54.74525 56.8125 53.71875 C 56.311492 50.89315 55.566792 48.0841 55.09375 45.25 C 56.283565 45.2022 58.277701 44.93005 61 43.90625 C 66.000462 42.02575 67.135094 40.5378 67.28125 39 C 67.439272 37.3373 64.4375 35.375 64.4375 35.375 C 64.4375 35.375 71.394129 32.10455 69.71875 30.40625 C 68.043371 28.70795 66.890912 32.5989 62.875 33.75 C 58.859087 34.9011 64.8125 39.0625 64.8125 39.0625 C 64.8125 39.0625 63.573823 39.80935 59.71875 41.28125 C 57.445427 42.14925 55.866046 42.63925 54.8125 42.96875 C 54.7179 42.06315 54.65435 41.1606 54.65625 40.25 C 54.65885 39.0312 55.941398 38.1148 55.15625 36.625 C 54.371102 35.1352 53.083151 35.56405 52.25 35.15625 C 52.22882 35.14625 52.20832 35.136 52.1875 35.125 C 52.792294 33.8147 54.460256 30.18665 55.6875 27.96875 C 58.722254 22.48425 65.625 12 65.625 12 C 65.625 12 57.736142 21.9276 54.40625 27.3125 C 53.136627 29.3657 51.61617 32.4978 50.78125 34.25 C 50.538026 34.1305 50.292762 34.0525 50 34.0625 C 49.707238 34.052899 49.461974 34.130923 49.21875 34.25 C 48.38383 32.497832 46.863373 29.365685 45.59375 27.3125 C 42.263858 21.9276 34.375 12 34.375 12 z "
       transform="translate(0,1989.2544)"
       id="rect6730" />
  </g>
</svg>
